<?xml version="1.0" encoding="UTF-8" standalone="no"?>
<!-- Generator: Adobe Illustrator 20.1.0, SVG Export Plug-In . SVG Version: 6.00 Build 0)  -->

<svg
   xmlns:dc="http://purl.org/dc/elements/1.1/"
   xmlns:cc="http://creativecommons.org/ns#"
   xmlns:rdf="http://www.w3.org/1999/02/22-rdf-syntax-ns#"
   xmlns:svg="http://www.w3.org/2000/svg"
   xmlns="http://www.w3.org/2000/svg"
   xmlns:sodipodi="http://sodipodi.sourceforge.net/DTD/sodipodi-0.dtd"
   xmlns:inkscape="http://www.inkscape.org/namespaces/inkscape"
   version="1.1"
   id="Layer_1"
   x="0px"
   y="0px"
   viewBox="0 0 608.91423 341.37932"
   xml:space="preserve"
   sodipodi:docname="Devops-toolchain.svg"
   inkscape:version="0.92.2 (5c3e80d, 2017-08-06)"
   width="608.91425"
   height="341.37933"><metadata
     id="metadata197"><rdf:RDF><cc:Work
         rdf:about=""><dc:format>image/svg+xml</dc:format><dc:type
           rdf:resource="http://purl.org/dc/dcmitype/StillImage" /><dc:title></dc:title></cc:Work></rdf:RDF></metadata><defs
     id="defs195" /><sodipodi:namedview
     pagecolor="#ffffff"
     bordercolor="#666666"
     borderopacity="1"
     objecttolerance="10"
     gridtolerance="10"
     guidetolerance="10"
     inkscape:pageopacity="0"
     inkscape:pageshadow="2"
     inkscape:window-width="1467"
     inkscape:window-height="1150"
     id="namedview193"
     showgrid="false"
     inkscape:zoom="0.47333333"
     inkscape:cx="-55.816907"
     inkscape:cy="175.07934"
     inkscape:window-x="3422"
     inkscape:window-y="164"
     inkscape:window-maximized="0"
     inkscape:current-layer="Layer_1"
     fit-margin-top="0"
     fit-margin-left="0"
     fit-margin-right="0"
     fit-margin-bottom="0" /><style
     type="text/css"
     id="style2">
	.st0{fill:#353535;}
	.st1{fill:#19838E;}
	.st2{fill:#3737AA;}
	.st3{fill:#8B9B29;}
	.st4{fill:none;}
	.st5{fill:#3FA9F5;}
	.st6{fill:#F15A24;}
	.st7{fill:#9263AB;}
	.st8{fill:#AA2E2E;}
	.st9{fill:#FFFFFF;}
</style><g
     id="g190"
     transform="translate(-3,-3.7)"><g
       id="g10"><path
         class="st0"
         d="m 158.9,167.9 c 0,3 -0.9,5.3 -2.6,6.9 -1.7,1.6 -4.2,2.4 -7.4,2.4 h -5.2 v -18.3 h 5.8 c 3,0 5.3,0.8 7,2.4 1.6,1.6 2.4,3.8 2.4,6.6 z m -4,0.1 c 0,-3.9 -1.7,-5.9 -5.2,-5.9 h -2.1 V 174 h 1.7 c 3.7,0 5.6,-2 5.6,-6 z"
         id="path4"
         inkscape:connector-curvature="0"
         style="fill:#353535" /><path
         class="st0"
         d="m 175.2,177.2 h -10.5 v -18.3 h 10.5 v 3.2 h -6.7 v 4 h 6.2 v 3.2 h -6.2 v 4.7 h 6.7 z"
         id="path6"
         inkscape:connector-curvature="0"
         style="fill:#353535" /><path
         class="st0"
         d="m 191.4,158.9 h 3.9 l -6.2,18.3 h -4.2 l -6.2,-18.3 h 3.9 l 3.4,10.9 c 0.2,0.6 0.4,1.4 0.6,2.2 0.2,0.9 0.3,1.5 0.4,1.8 0.1,-0.8 0.4,-2.1 0.9,-4 z"
         id="path8"
         inkscape:connector-curvature="0"
         style="fill:#353535" /></g><g
       id="g18"><path
         class="st0"
         d="m 421.4,168.1 c 0,3 -0.8,5.4 -2.3,7 -1.5,1.6 -3.7,2.4 -6.5,2.4 -2.8,0 -5,-0.8 -6.5,-2.4 -1.5,-1.6 -2.3,-4 -2.3,-7 0,-3 0.8,-5.4 2.3,-7 1.5,-1.6 3.7,-2.4 6.5,-2.4 2.8,0 5,0.8 6.5,2.4 1.5,1.6 2.3,3.9 2.3,7 z m -13.4,0 c 0,2 0.4,3.6 1.2,4.6 0.8,1 1.9,1.6 3.5,1.6 3.1,0 4.6,-2.1 4.6,-6.2 0,-4.1 -1.5,-6.2 -4.6,-6.2 -1.5,0 -2.7,0.5 -3.5,1.6 -0.8,1 -1.2,2.5 -1.2,4.6 z"
         id="path12"
         inkscape:connector-curvature="0"
         style="fill:#353535" /><path
         class="st0"
         d="m 439.8,164.6 c 0,2 -0.6,3.5 -1.8,4.5 -1.2,1 -3,1.6 -5.3,1.6 H 431 v 6.5 h -3.9 v -18.3 h 5.9 c 2.2,0 3.9,0.5 5.1,1.4 1.1,1 1.7,2.4 1.7,4.3 z m -8.8,2.9 h 1.3 c 1.2,0 2.1,-0.2 2.7,-0.7 0.6,-0.5 0.9,-1.2 0.9,-2.1 0,-0.9 -0.2,-1.6 -0.7,-2 -0.5,-0.4 -1.3,-0.7 -2.3,-0.7 H 431 Z"
         id="path14"
         inkscape:connector-curvature="0"
         style="fill:#353535" /><path
         class="st0"
         d="m 456,172.1 c 0,1.7 -0.6,3 -1.8,3.9 -1.2,1 -2.8,1.4 -5,1.4 -2,0 -3.7,-0.4 -5.2,-1.1 v -3.6 c 1.2,0.6 2.3,0.9 3.1,1.2 0.9,0.2 1.6,0.3 2.3,0.3 0.9,0 1.5,-0.2 2,-0.5 0.5,-0.3 0.7,-0.8 0.7,-1.5 0,-0.4 -0.1,-0.7 -0.3,-1 -0.2,-0.3 -0.5,-0.5 -0.9,-0.8 -0.4,-0.3 -1.2,-0.7 -2.4,-1.2 -1.1,-0.5 -2,-1 -2.5,-1.5 -0.5,-0.5 -1,-1 -1.3,-1.7 -0.3,-0.6 -0.5,-1.4 -0.5,-2.3 0,-1.6 0.5,-2.9 1.6,-3.8 1.1,-0.9 2.6,-1.4 4.6,-1.4 1,0 1.9,0.1 2.7,0.3 0.9,0.2 1.8,0.5 2.7,1 l -1.3,3 c -1,-0.4 -1.8,-0.7 -2.4,-0.8 -0.6,-0.2 -1.3,-0.2 -1.9,-0.2 -0.7,0 -1.3,0.2 -1.7,0.5 -0.4,0.3 -0.6,0.8 -0.6,1.3 0,0.3 0.1,0.6 0.2,0.9 0.2,0.3 0.4,0.5 0.8,0.7 0.3,0.2 1.2,0.7 2.5,1.3 1.7,0.8 2.9,1.6 3.5,2.5 0.6,0.9 1.1,2 1.1,3.1 z"
         id="path16"
         inkscape:connector-curvature="0"
         style="fill:#353535" /></g><g
       id="g22"><path
         class="st1"
         d="m 180.2,75.6 c 47.4,5.4 84.2,45.6 84.2,94.4 0,-38.8 13.3,-74.6 35.6,-102.9 C 271.6,31.1 228.7,7.2 180.2,4 l -13.9,35.8 z"
         id="path20"
         inkscape:connector-curvature="0"
         style="fill:#19838e" /></g><g
       id="g26"><path
         class="st2"
         d="m 159.3,264.5 c -47.8,-5 -85,-45.4 -85,-94.5 0,-0.5 0,-1.1 0,-1.6 L 39.1,182.1 3,168.1 c 0,0.6 0,1.3 0,1.9 0,88.6 69.3,161 156.6,166 l 13.7,-35.4 z"
         id="path24"
         inkscape:connector-curvature="0"
         style="fill:#3737aa" /></g><g
       id="g30"><path
         class="st0"
         d="m 336,177 c 0,0 0,0 0,0 0,0 0,0 0,0 z"
         id="path28"
         inkscape:connector-curvature="0"
         style="fill:#353535" /></g><g
       id="g34"><path
         class="st0"
         d="m 335.7,173.5 c 0,-1.2 -0.1,-2.3 -0.1,-3.5 0,1.2 0,2.3 0,3.5 0,0 0,0 0,0 z"
         id="path32"
         inkscape:connector-curvature="0"
         style="fill:#353535" /></g><g
       id="g38"><path
         class="st3"
         d="m 74.7,161.1 c 4.5,-48.3 45.1,-86.2 94.6,-86.2 1.2,0 2.3,0 3.5,0.1 l -13.7,-35.2 14,-36.1 c -1.3,0 -2.6,0 -3.8,0 C 80.5,3.7 7.9,73.3 3.2,161 l 35.9,13.9 z"
         id="path36"
         inkscape:connector-curvature="0"
         style="fill:#8b9b29" /></g><g
       id="g42"><polygon
         class="st4"
         points="264.7,180.8 266,180.3 "
         id="polygon40"
         style="fill:none" /></g><g
       id="g56"><g
         id="g46"><path
           class="st5"
           d="m 264.7,180.8 v 0 c 0,0 0,-0.1 0,-0.1 z"
           id="path44"
           inkscape:connector-curvature="0"
           style="fill:#3fa9f5" /></g><g
         id="g50"><path
           class="st5"
           d="m 335.3,180.5 -34.8,-13.5 -34,13.2 v 0 l -0.5,0.2 -1.3,0.5 c 0,0 0,0 0,0.1 0,0 0,0 0,0 l -1,0.4 c -5.6,47.2 -45.7,83.8 -94.4,83.8 -0.9,0 -1.8,0 -2.7,0 l 13.8,35.7 -13.8,35.6 c 0.9,0 1.8,0 2.7,0 53,0 100.2,-24.8 130.7,-63.4 0,0 0,-0.1 0,-0.1 20.3,-25.9 33.1,-57.8 35.3,-92.5 z"
           id="path48"
           inkscape:connector-curvature="0"
           style="fill:#3fa9f5" /></g><g
         id="g54"><path
           class="st5"
           d="m 264.7,180.7 c 0,0 0,0 0,0 z"
           id="path52"
           inkscape:connector-curvature="0"
           style="fill:#3fa9f5" /></g></g><g
       id="g70"><g
         id="g60"><polygon
           class="st6"
           points=""
           id="polygon58"
           style="fill:#f15a24" /></g><g
         id="g64"><path
           class="st6"
           d="m 264.4,173.9 v 0 c 0,-0.1 0,0 0,0 z"
           id="path62"
           inkscape:connector-curvature="0"
           style="fill:#f15a24" /></g><g
         id="g68"><path
           class="st6"
           d="m 458.8,6.1 c -9.2,-1.6 -18.6,-2.4 -28.1,-2.4 -53,0 -100.2,24.8 -130.7,63.4 -22.3,28.3 -35.6,64 -35.6,102.9 0,1.3 0,2.6 0,3.8 l 36.1,-14 35.1,13.6 c 0,-1.2 0,-2.3 0,-3.5 0,-52.5 42.6,-95 95,-95 4.3,0 8.5,0.3 12.7,0.8 l 21.1,-31.3 z"
           id="path66"
           inkscape:connector-curvature="0"
           style="fill:#f15a24" /></g></g><g
       id="g74"><path
         class="st7"
         d="m 594.5,198.8 c 1.6,-9.4 2.5,-19 2.5,-28.8 C 597,90.2 540.8,23.5 465.7,7.4 l 5.7,38.7 -20.9,31 c 43,9.1 75.2,47.3 75.2,93 0,4.2 -0.3,8.4 -0.8,12.5 l 32.2,21.8 z"
         id="path72"
         inkscape:connector-curvature="0"
         style="fill:#9263ab" /></g><g
       id="g78"><path
         class="st8"
         d="m 523.7,189.7 c -9.1,43 -47.3,75.4 -93,75.4 -4.2,0 -8.3,-0.3 -12.4,-0.8 l -21.9,32.7 5.6,36.9 c 9.3,1.6 18.9,2.5 28.7,2.5 79.6,0 146.1,-55.9 162.5,-130.6 l -37.6,5.5 z"
         id="path76"
         inkscape:connector-curvature="0"
         style="fill:#aa2e2e" /></g><g
       id="g82"><path
         class="st1"
         d="m 411.1,263 c -39.7,-8.3 -70.2,-41.3 -74.9,-82.2 l -0.9,-0.4 c -2.2,34.8 -15,66.7 -35.3,92.4 23.4,29.7 56.8,51.2 95,59.6 l -5.6,-37.1 z"
         id="path80"
         inkscape:connector-curvature="0"
         style="fill:#19838e" /></g><g
       id="g98"><path
         class="st9"
         d="m 327.8,94.9 3.1,2.3 -1.3,1.7 -8.2,-6.1 1.8,-2.4 c 0.8,-1.1 1.6,-1.8 2.4,-2 0.8,-0.2 1.6,0 2.4,0.6 0.5,0.4 0.8,0.8 1,1.4 0.2,0.5 0.2,1.1 0,1.8 2.8,0.1 4.5,0.2 5.4,0.3 L 333,94.4 328.4,94 Z m -1.4,-1.1 0.4,-0.6 c 0.4,-0.5 0.6,-1 0.6,-1.4 0,-0.4 -0.2,-0.7 -0.6,-1 -0.4,-0.3 -0.8,-0.4 -1.1,-0.2 -0.4,0.1 -0.8,0.5 -1.2,1.1 l -0.4,0.5 z"
         id="path84"
         inkscape:connector-curvature="0"
         style="fill:#ffffff" /><path
         class="st9"
         d="m 339.8,86.4 -3.9,4.4 -7.7,-6.7 3.9,-4.4 1.3,1.2 -2.4,2.8 1.7,1.5 2.3,-2.6 1.3,1.2 -2.3,2.6 2,1.7 2.4,-2.8 z"
         id="path86"
         inkscape:connector-curvature="0"
         style="fill:#ffffff" /><path
         class="st9"
         d="m 341.9,84.2 -7.2,-7.3 1.5,-1.5 5.9,6 2.9,-2.9 1.3,1.3 z"
         id="path88"
         inkscape:connector-curvature="0"
         style="fill:#ffffff" /><path
         class="st9"
         d="m 352.9,74.2 -4.5,3.8 -6.6,-7.8 4.5,-3.8 1.2,1.3 -2.8,2.4 1.5,1.7 2.6,-2.2 1.2,1.3 -2.6,2.2 1.7,2 2.8,-2.4 z"
         id="path90"
         inkscape:connector-curvature="0"
         style="fill:#ffffff" /><path
         class="st9"
         d="m 360.3,68.6 -2,-1.5 -3,2.2 0.8,2.4 -1.9,1.4 -3.1,-10.4 2.1,-1.6 8.9,6.2 z m -3.5,-2.7 c -1.8,-1.4 -2.9,-2.2 -3.1,-2.3 -0.2,-0.2 -0.4,-0.3 -0.6,-0.4 0.2,0.6 0.7,2 1.5,4.3 z"
         id="path92"
         inkscape:connector-curvature="0"
         style="fill:#ffffff" /><path
         class="st9"
         d="m 367.6,60.6 c 0.5,0.8 0.6,1.6 0.3,2.4 -0.3,0.8 -0.9,1.5 -1.9,2.1 -0.9,0.6 -1.9,0.9 -2.8,1 l -1,-1.7 c 0.7,-0.1 1.4,-0.2 1.8,-0.4 0.5,-0.1 0.9,-0.3 1.2,-0.5 0.4,-0.2 0.7,-0.5 0.8,-0.8 0.1,-0.3 0.1,-0.6 -0.1,-0.9 -0.1,-0.2 -0.2,-0.3 -0.4,-0.4 -0.2,-0.1 -0.4,-0.1 -0.7,-0.1 -0.3,0 -0.8,0 -1.5,0.1 -0.7,0.1 -1.2,0.1 -1.6,0 -0.4,-0.1 -0.8,-0.2 -1.1,-0.4 -0.3,-0.2 -0.6,-0.5 -0.9,-0.9 -0.5,-0.8 -0.6,-1.5 -0.3,-2.3 0.3,-0.8 0.8,-1.4 1.8,-2 0.5,-0.3 0.9,-0.5 1.4,-0.6 0.5,-0.1 1,-0.3 1.6,-0.3 l 0.3,1.8 c -0.6,0.1 -1,0.2 -1.4,0.3 -0.3,0.1 -0.7,0.3 -1,0.4 -0.3,0.2 -0.6,0.5 -0.7,0.7 -0.1,0.3 -0.1,0.5 0.1,0.8 0.1,0.2 0.2,0.3 0.4,0.4 0.2,0.1 0.3,0.1 0.6,0.1 0.3,0 0.7,0 1.5,-0.1 1.1,-0.1 1.8,-0.1 2.4,0.1 0.5,0.2 0.9,0.6 1.2,1.2 z"
         id="path94"
         inkscape:connector-curvature="0"
         style="fill:#ffffff" /><path
         class="st9"
         d="m 376.8,58.9 -5.2,2.7 -4.7,-9.1 5.2,-2.7 0.8,1.6 -3.3,1.7 1,2 3.1,-1.6 0.8,1.6 -3.1,1.6 1.2,2.3 3.3,-1.7 z"
         id="path96"
         inkscape:connector-curvature="0"
         style="fill:#ffffff" /></g><g
       id="g108"><path
         class="st9"
         d="m 233.1,56.1 c -0.5,1 -1.2,1.6 -2.1,1.8 -0.9,0.2 -1.9,0 -3,-0.6 l -0.8,-0.4 -1.7,3.2 -1.9,-1 4.7,-9 2.9,1.5 c 1.1,0.6 1.8,1.2 2.1,2 0.3,0.7 0.2,1.6 -0.2,2.5 z m -5.1,-0.8 0.6,0.3 c 0.6,0.3 1.1,0.4 1.5,0.3 0.4,-0.1 0.7,-0.3 1,-0.8 0.2,-0.5 0.3,-0.8 0.2,-1.2 -0.1,-0.3 -0.5,-0.6 -1,-0.9 l -0.9,-0.5 z"
         id="path100"
         inkscape:connector-curvature="0"
         style="fill:#ffffff" /><path
         class="st9"
         d="m 232.2,63.8 5.4,-8.7 1.8,1.1 -4.4,7.1 3.5,2.2 -0.9,1.5 z"
         id="path102"
         inkscape:connector-curvature="0"
         style="fill:#ffffff" /><path
         class="st9"
         d="m 244.8,72.3 0.8,-2.4 -3,-2.2 -2,1.5 -1.9,-1.4 9,-6.1 2.1,1.6 -3.2,10.4 z m 1.5,-4.2 c 0.8,-2.2 1.2,-3.4 1.3,-3.7 0.1,-0.3 0.2,-0.5 0.3,-0.7 -0.5,0.4 -1.7,1.3 -3.7,2.8 z"
         id="path104"
         inkscape:connector-curvature="0"
         style="fill:#ffffff" /><path
         class="st9"
         d="m 255.1,81.1 -2,-1.8 1.8,-8.7 v 0 c -0.8,1.1 -1.5,1.8 -1.8,2.3 l -3.2,3.6 -1.4,-1.3 6.8,-7.6 2,1.8 -1.8,8.6 v 0 c 0.8,-1 1.4,-1.8 1.8,-2.2 l 3.2,-3.6 1.4,1.3 z"
         id="path106"
         inkscape:connector-curvature="0"
         style="fill:#ffffff" /></g><g
       id="g122"><path
         class="st9"
         d="m 55.7,102.8 c -0.4,0.7 -0.5,1.4 -0.2,2.1 0.3,0.7 0.9,1.3 1.9,1.9 2,1.1 3.4,1 4.2,-0.5 0.4,-0.6 0.6,-1.5 0.8,-2.5 l 1.6,0.9 c -0.1,0.9 -0.4,1.8 -1,2.7 -0.7,1.3 -1.7,2 -2.9,2.3 -1.2,0.2 -2.5,-0.1 -3.9,-0.9 -0.9,-0.5 -1.6,-1.2 -2.1,-1.9 -0.5,-0.7 -0.7,-1.5 -0.8,-2.4 0,-0.8 0.2,-1.7 0.7,-2.5 0.5,-0.9 1.2,-1.6 2.1,-2.2 l 1.2,1.5 c -0.3,0.2 -0.7,0.5 -1,0.8 -0.1,0.1 -0.4,0.4 -0.6,0.7 z"
         id="path110"
         inkscape:connector-curvature="0"
         style="fill:#ffffff" /><path
         class="st9"
         d="m 64.1,98.3 3.2,2.2 -1.2,1.8 -8.4,-5.8 1.7,-2.4 C 60.2,93 61,92.3 61.8,92 c 0.8,-0.3 1.6,-0.1 2.5,0.5 0.5,0.3 0.8,0.8 1,1.3 0.2,0.5 0.2,1.1 0.1,1.8 2.8,0.1 4.5,0.1 5.4,0.1 l -1.4,2 -4.6,-0.2 z m -1.4,-1 0.4,-0.6 c 0.4,-0.6 0.6,-1 0.6,-1.4 0,-0.4 -0.2,-0.7 -0.6,-1 C 62.7,94 62.3,94 62,94.1 c -0.4,0.2 -0.7,0.5 -1.1,1.1 l -0.4,0.5 z"
         id="path112"
         inkscape:connector-curvature="0"
         style="fill:#ffffff" /><path
         class="st9"
         d="m 75.8,89.4 -3.7,4.5 -7.9,-6.5 3.7,-4.5 1.4,1.1 -2.3,2.9 1.7,1.4 2.2,-2.7 1.4,1.1 -2.2,2.7 2,1.7 2.3,-2.9 z"
         id="path114"
         inkscape:connector-curvature="0"
         style="fill:#ffffff" /><path
         class="st9"
         d="m 82.1,82.6 -2.3,-1.1 -2.6,2.7 1.2,2.2 -1.6,1.7 -4.8,-9.7 1.8,-1.9 9.9,4.5 z m -3.9,-2 c -2.1,-1 -3.2,-1.6 -3.5,-1.8 -0.3,-0.1 -0.5,-0.3 -0.6,-0.3 0.3,0.5 1.1,1.9 2.3,4 z"
         id="path116"
         inkscape:connector-curvature="0"
         style="fill:#ffffff" /><path
         class="st9"
         d="m 88.3,76.9 -1.6,1.4 -5.6,-6.3 -2.1,1.9 -1.2,-1.3 5.8,-5.1 1.2,1.3 -2.1,1.8 z"
         id="path118"
         inkscape:connector-curvature="0"
         style="fill:#ffffff" /><path
         class="st9"
         d="m 97,70 -4.7,3.6 -6.2,-8.1 4.7,-3.6 1.1,1.4 -3,2.3 1.4,1.8 2.7,-2.1 1.1,1.4 -2.7,2.1 1.6,2.1 3,-2.3 z"
         id="path120"
         inkscape:connector-curvature="0"
         style="fill:#ffffff" /></g><g
       id="g136"><path
         class="st9"
         d="m 68.4,241.5 1.2,1.8 -10.4,2.9 -1.3,-1.9 6.5,-8.6 1.2,1.8 -3.9,5 c -0.2,0.3 -0.5,0.6 -0.8,1 -0.3,0.4 -0.6,0.6 -0.7,0.7 0.4,-0.2 1.1,-0.5 2.2,-0.8 z"
         id="path124"
         inkscape:connector-curvature="0"
         style="fill:#ffffff" /><path
         class="st9"
         d="m 66.6,255.9 -3.7,-4.6 8,-6.4 3.7,4.6 -1.4,1.1 -2.3,-2.9 -1.8,1.4 2.2,2.7 -1.4,1.1 -2.2,-2.7 -2.1,1.6 2.3,2.9 z"
         id="path126"
         inkscape:connector-curvature="0"
         style="fill:#ffffff" /><path
         class="st9"
         d="m 73.3,257.6 -2.9,2.7 -1.5,-1.6 7.5,-6.9 2,2.2 c 0.9,1 1.5,1.9 1.5,2.8 0.1,0.8 -0.3,1.6 -1,2.3 -0.4,0.4 -0.9,0.7 -1.5,0.7 -0.6,0.1 -1.2,0 -1.8,-0.3 -0.6,2.7 -1,4.4 -1.2,5.2 l -1.6,-1.8 1.2,-4.4 z m 1.3,-1.2 0.5,0.5 c 0.5,0.5 0.9,0.8 1.3,0.9 0.4,0.1 0.8,0 1.1,-0.4 0.4,-0.3 0.5,-0.7 0.4,-1.1 -0.1,-0.4 -0.4,-0.8 -0.8,-1.3 l -0.4,-0.5 z"
         id="path128"
         inkscape:connector-curvature="0"
         style="fill:#ffffff" /><path
         class="st9"
         d="m 76.5,266.5 7,-7.4 1.6,1.5 -7,7.4 z"
         id="path130"
         inkscape:connector-curvature="0"
         style="fill:#ffffff" /><path
         class="st9"
         d="m 82.7,272.1 -1.6,-1.4 6.6,-7.8 4.5,3.8 -1.1,1.4 -2.8,-2.4 -1.7,2 2.6,2.2 -1.1,1.3 -2.6,-2.2 z"
         id="path132"
         inkscape:connector-curvature="0"
         style="fill:#ffffff" /><path
         class="st9"
         d="m 94.4,273.6 4.2,-2.2 1.9,1.4 -6.4,3.1 -2.3,3.2 -1.7,-1.3 2.3,-3.2 1,-7.1 1.9,1.4 z"
         id="path134"
         inkscape:connector-curvature="0"
         style="fill:#ffffff" /></g><g
       id="g152"><path
         class="st9"
         d="m 464.4,299.4 -4.5,-7.1 h -0.1 c 0.5,1.5 0.8,2.6 1,3.1 l 1.2,4.6 -1.9,0.5 -2.7,-9.8 2.8,-0.8 4.4,6.9 v 0 l 0.4,-8.2 2.8,-0.8 2.7,9.8 -1.9,0.5 -1.3,-4.7 c -0.1,-0.2 -0.1,-0.5 -0.2,-0.8 -0.1,-0.3 -0.2,-1.1 -0.5,-2.3 h -0.1 l -0.5,8.4 z"
         id="path138"
         inkscape:connector-curvature="0"
         style="fill:#ffffff" /><path
         class="st9"
         d="m 481.6,288.2 c 0.6,1.6 0.7,2.9 0.2,4.1 -0.5,1.1 -1.4,2 -2.9,2.6 -1.5,0.6 -2.7,0.6 -3.8,0 -1.1,-0.5 -2,-1.6 -2.6,-3.2 -0.6,-1.6 -0.7,-2.9 -0.2,-4.1 0.5,-1.1 1.4,-2 2.9,-2.6 1.5,-0.6 2.7,-0.6 3.8,0 1.1,0.6 1.9,1.6 2.6,3.2 z m -7,2.7 c 0.4,1.1 0.9,1.8 1.5,2.2 0.6,0.4 1.3,0.4 2.1,0.1 1.6,-0.6 2,-2 1.2,-4.1 -0.8,-2.1 -2,-2.9 -3.6,-2.3 -0.8,0.3 -1.3,0.8 -1.5,1.5 -0.2,0.6 -0.1,1.5 0.3,2.6 z"
         id="path140"
         inkscape:connector-curvature="0"
         style="fill:#ffffff" /><path
         class="st9"
         d="m 495,287.3 -2.5,1.2 -7.4,-4.9 H 485 c 0.7,1.2 1.2,2 1.4,2.5 l 2.2,4.3 -1.7,0.9 -4.6,-9.1 2.4,-1.2 7.4,4.8 v 0 c -0.7,-1.2 -1.1,-2 -1.4,-2.5 l -2.2,-4.3 1.7,-0.9 z"
         id="path142"
         inkscape:connector-curvature="0"
         style="fill:#ffffff" /><path
         class="st9"
         d="m 498.5,285.3 -5.2,-8.8 1.9,-1.1 5.2,8.8 z"
         id="path144"
         inkscape:connector-curvature="0"
         style="fill:#ffffff" /><path
         class="st9"
         d="m 507,279.8 -1.8,1.2 -4.7,-6.9 -2.3,1.6 -1,-1.5 6.4,-4.3 1,1.5 -2.3,1.6 z"
         id="path146"
         inkscape:connector-curvature="0"
         style="fill:#ffffff" /><path
         class="st9"
         d="m 515.8,266.6 c 1.1,1.3 1.6,2.6 1.5,3.8 -0.1,1.2 -0.7,2.3 -1.9,3.3 -1.2,1 -2.4,1.4 -3.6,1.2 -1.2,-0.2 -2.4,-0.9 -3.4,-2.2 -1.1,-1.3 -1.6,-2.6 -1.5,-3.8 0.1,-1.2 0.7,-2.3 1.9,-3.3 1.2,-1 2.4,-1.4 3.6,-1.2 1.2,0.1 2.3,0.8 3.4,2.2 z m -5.8,4.7 c 0.7,0.9 1.4,1.4 2.1,1.6 0.7,0.2 1.4,0 2,-0.6 1.3,-1.1 1.3,-2.5 -0.2,-4.3 -1.5,-1.8 -2.8,-2.1 -4.2,-1 -0.7,0.5 -1,1.2 -1,1.9 0.2,0.7 0.6,1.5 1.3,2.4 z"
         id="path148"
         inkscape:connector-curvature="0"
         style="fill:#ffffff" /><path
         class="st9"
         d="m 520.6,263.7 2.7,2.8 -1.5,1.5 -7.1,-7.3 2.1,-2.1 c 1,-1 1.9,-1.5 2.7,-1.6 0.8,-0.1 1.6,0.2 2.3,0.9 0.4,0.4 0.7,0.9 0.8,1.5 0.1,0.6 0,1.2 -0.2,1.8 2.7,0.6 4.5,0.9 5.3,1.1 l -1.7,1.7 -4.5,-1.1 z m -1.2,-1.3 0.5,-0.5 c 0.5,-0.5 0.8,-0.9 0.8,-1.3 0.1,-0.4 -0.1,-0.8 -0.4,-1.1 -0.3,-0.3 -0.7,-0.5 -1.1,-0.4 -0.4,0.1 -0.8,0.4 -1.3,0.9 l -0.5,0.5 z"
         id="path150"
         inkscape:connector-curvature="0"
         style="fill:#ffffff" /></g><g
       id="g168"><path
         class="st9"
         d="m 235,279.1 c 0.5,1 0.6,1.9 0.3,2.7 -0.3,0.8 -1.1,1.5 -2.2,2.1 l -0.8,0.4 1.7,3.2 -1.9,1 -4.8,-9 2.9,-1.5 c 1.1,-0.6 2,-0.8 2.9,-0.6 0.7,0.2 1.4,0.7 1.9,1.7 z m -3.6,3.7 0.6,-0.3 c 0.6,-0.3 1,-0.7 1.1,-1 0.2,-0.4 0.1,-0.8 -0.1,-1.2 -0.2,-0.4 -0.5,-0.7 -0.9,-0.8 -0.4,-0.1 -0.8,0 -1.3,0.3 l -0.9,0.5 z"
         id="path154"
         inkscape:connector-curvature="0"
         style="fill:#ffffff" /><path
         class="st9"
         d="m 246.6,280.1 -1.9,-1.6 -3.1,2 0.7,2.4 -2,1.3 -2.6,-10.6 2.2,-1.4 8.6,6.6 z m -3.4,-2.9 c -1.8,-1.5 -2.8,-2.3 -3,-2.5 -0.2,-0.2 -0.4,-0.4 -0.5,-0.5 0.2,0.6 0.6,2.1 1.3,4.4 z"
         id="path156"
         inkscape:connector-curvature="0"
         style="fill:#ffffff" /><path
         class="st9"
         d="m 249,267.7 c -0.6,0.5 -1,1.1 -0.9,1.9 0,0.8 0.4,1.6 1,2.4 1.4,1.8 2.8,2.2 4.1,1.1 0.6,-0.4 1.1,-1.1 1.7,-2 l 1.1,1.4 c -0.4,0.8 -1.1,1.5 -1.9,2.1 -1.2,0.9 -2.3,1.3 -3.5,1 -1.2,-0.2 -2.3,-1 -3.3,-2.3 -0.7,-0.8 -1.1,-1.7 -1.3,-2.6 -0.2,-0.9 -0.1,-1.7 0.2,-2.5 0.3,-0.8 0.8,-1.5 1.6,-2.1 0.8,-0.6 1.7,-1 2.8,-1.3 l 0.5,1.8 c -0.4,0.1 -0.8,0.2 -1.2,0.3 -0.3,0.4 -0.6,0.5 -0.9,0.8 z"
         id="path158"
         inkscape:connector-curvature="0"
         style="fill:#ffffff" /><path
         class="st9"
         d="m 265.2,264.8 -1.8,1.7 -4.9,-1.3 -0.2,1.1 2.5,2.7 -1.6,1.5 -6.9,-7.5 1.6,-1.5 3.2,3.4 -0.2,-1.5 -0.3,-4.4 1.8,-1.6 0.5,5.7 z"
         id="path160"
         inkscape:connector-curvature="0"
         style="fill:#ffffff" /><path
         class="st9"
         d="m 271.4,258 -2.3,-1.1 -2.5,2.8 1.3,2.2 -1.6,1.7 -5.2,-9.5 1.8,-2 10,4.2 z m -4,-1.9 c -2.1,-1 -3.3,-1.5 -3.5,-1.6 -0.3,-0.1 -0.5,-0.2 -0.6,-0.3 0.3,0.5 1.1,1.8 2.4,3.9 z"
         id="path162"
         inkscape:connector-curvature="0"
         style="fill:#ffffff" /><path
         class="st9"
         d="m 272.6,247.5 2.4,-3.2 4.2,3.2 c -0.2,0.7 -0.5,1.2 -0.8,1.8 -0.3,0.5 -0.6,1 -1,1.5 -0.9,1.2 -2,1.9 -3.2,2 -1.2,0.1 -2.5,-0.4 -3.8,-1.4 -1.3,-1 -2.1,-2.1 -2.2,-3.4 -0.2,-1.3 0.2,-2.6 1.2,-4 0.6,-0.8 1.4,-1.5 2.3,-2 l 1,1.6 c -0.7,0.4 -1.4,0.9 -1.8,1.5 -0.6,0.7 -0.8,1.5 -0.6,2.4 0.2,0.8 0.7,1.6 1.5,2.2 0.9,0.7 1.7,1 2.4,1 0.7,0 1.4,-0.4 1.9,-1.1 0.3,-0.4 0.5,-0.8 0.7,-1.2 l -1.7,-1.3 -1.2,1.5 z"
         id="path164"
         inkscape:connector-curvature="0"
         style="fill:#ffffff" /><path
         class="st9"
         d="m 284.9,239.4 -3.1,5 -8.6,-5.4 3.1,-5 1.5,0.9 -2,3.1 1.9,1.2 1.8,-2.9 1.5,0.9 -1.8,2.9 2.2,1.4 2,-3.1 z"
         id="path166"
         inkscape:connector-curvature="0"
         style="fill:#ffffff" /></g><g
       id="g188"><path
         class="st9"
         d="m 516.7,69.9 c -0.6,-0.5 -1.3,-0.7 -2,-0.5 -0.7,0.2 -1.5,0.7 -2.2,1.5 -1.5,1.7 -1.6,3.2 -0.3,4.3 0.5,0.5 1.3,0.9 2.3,1.3 l -1.2,1.4 c -0.9,-0.3 -1.7,-0.7 -2.5,-1.4 -1.1,-1 -1.7,-2 -1.7,-3.2 0,-1.2 0.5,-2.4 1.6,-3.7 0.7,-0.8 1.4,-1.4 2.2,-1.8 0.8,-0.4 1.6,-0.5 2.5,-0.3 0.8,0.1 1.6,0.5 2.4,1.2 0.8,0.6 1.4,1.5 1.8,2.5 l -1.7,0.9 c -0.2,-0.4 -0.4,-0.8 -0.6,-1.1 -0.1,-0.6 -0.3,-0.9 -0.6,-1.1 z"
         id="path170"
         inkscape:connector-curvature="0"
         style="fill:#ffffff" /><path
         class="st9"
         d="m 525.5,83.1 c -1.2,1.2 -2.4,1.8 -3.7,1.8 -1.2,0 -2.4,-0.5 -3.5,-1.6 -1.1,-1.1 -1.6,-2.3 -1.6,-3.5 0.1,-1.2 0.7,-2.4 1.9,-3.6 1.2,-1.2 2.4,-1.8 3.7,-1.8 1.2,0 2.4,0.5 3.5,1.6 1.1,1.1 1.6,2.3 1.6,3.5 0,1.2 -0.7,2.4 -1.9,3.6 z m -5.2,-5.3 c -0.8,0.8 -1.3,1.6 -1.4,2.3 -0.1,0.7 0.1,1.4 0.7,2 1.2,1.2 2.6,1 4.3,-0.6 1.6,-1.6 1.9,-3 0.6,-4.3 -0.6,-0.6 -1.3,-0.9 -2,-0.8 -0.6,0.2 -1.4,0.6 -2.2,1.4 z"
         id="path172"
         inkscape:connector-curvature="0"
         style="fill:#ffffff" /><path
         class="st9"
         d="m 529.5,96 -1.7,-2.2 3.3,-8.3 v 0 c -1,0.9 -1.7,1.6 -2.2,1.9 l -3.8,3 -1.2,-1.5 8,-6.3 1.7,2.1 -3.2,8.2 v 0 c 1,-0.9 1.7,-1.5 2.1,-1.8 l 3.8,-3 1.2,1.5 z"
         id="path174"
         inkscape:connector-curvature="0"
         style="fill:#ffffff" /><path
         class="st9"
         d="m 532.7,100.5 -1.2,-1.8 8.4,-5.7 3.3,4.8 -1.5,1 -2.1,-3.1 -2.2,1.5 1.9,2.9 -1.5,1 -1.9,-2.9 z"
         id="path176"
         inkscape:connector-curvature="0"
         style="fill:#ffffff" /><path
         class="st9"
         d="m 536.3,106.1 8.8,-5.2 1.1,1.9 -8.8,5.2 z"
         id="path178"
         inkscape:connector-curvature="0"
         style="fill:#ffffff" /><path
         class="st9"
         d="m 546,111.8 1.8,3.6 -4.7,2.4 c -0.5,-0.5 -0.9,-1 -1.2,-1.5 -0.3,-0.5 -0.6,-1 -0.9,-1.5 -0.7,-1.4 -0.8,-2.6 -0.4,-3.8 0.4,-1.1 1.4,-2.1 2.9,-2.8 1.5,-0.7 2.8,-0.9 4.1,-0.5 1.2,0.4 2.2,1.4 3,2.9 0.5,0.9 0.7,1.9 0.8,3 l -1.9,0.1 c 0,-0.8 -0.2,-1.6 -0.5,-2.3 -0.4,-0.8 -1,-1.4 -1.9,-1.6 -0.8,-0.2 -1.7,-0.1 -2.6,0.4 -1,0.5 -1.6,1.1 -2,1.8 -0.3,0.7 -0.3,1.4 0.1,2.2 0.2,0.4 0.5,0.8 0.7,1.2 l 1.9,-1 -0.9,-1.7 z"
         id="path180"
         inkscape:connector-curvature="0"
         style="fill:#ffffff" /><path
         class="st9"
         d="m 556.6,125 -6.1,2.4 c -0.7,0.3 -1.4,0.4 -2,0.3 -0.6,-0.1 -1.2,-0.4 -1.7,-0.9 -0.5,-0.5 -0.9,-1.1 -1.2,-1.9 -0.5,-1.2 -0.5,-2.3 -0.2,-3.2 0.4,-0.9 1.1,-1.6 2.2,-2 l 6.1,-2.4 0.8,2 -5.8,2.3 c -0.7,0.3 -1.2,0.6 -1.4,1.1 -0.2,0.4 -0.2,1 0.1,1.7 0.3,0.7 0.6,1.1 1.1,1.2 0.5,0.2 1.1,0.1 1.8,-0.2 l 5.8,-2.3 z"
         id="path182"
         inkscape:connector-curvature="0"
         style="fill:#ffffff" /><path
         class="st9"
         d="m 552.5,132.9 -3.8,1.1 -0.6,-2.1 9.8,-2.9 0.8,2.9 c 0.4,1.3 0.4,2.4 0.1,3.2 -0.3,0.8 -0.9,1.3 -1.9,1.6 -0.6,0.2 -1.1,0.2 -1.7,0 -0.5,-0.2 -1,-0.5 -1.4,-1 -1.8,2.1 -2.9,3.5 -3.4,4.1 l -0.7,-2.3 3.1,-3.4 z m 1.7,-0.5 0.2,0.7 c 0.2,0.7 0.4,1.1 0.8,1.4 0.3,0.2 0.7,0.3 1.2,0.2 0.5,-0.1 0.7,-0.4 0.8,-0.8 0.1,-0.4 0.1,-0.9 -0.1,-1.6 l -0.2,-0.6 z"
         id="path184"
         inkscape:connector-curvature="0"
         style="fill:#ffffff" /><path
         class="st9"
         d="m 552.1,147.6 -1.2,-5.7 10,-2.1 1.2,5.7 -1.7,0.4 -0.8,-3.6 -2.2,0.5 0.7,3.4 -1.7,0.4 -0.7,-3.4 -2.6,0.5 0.8,3.6 z"
         id="path186"
         inkscape:connector-curvature="0"
         style="fill:#ffffff" /></g></g><text
     xml:space="preserve"
     style="font-style:normal;font-weight:normal;font-size:40px;line-height:1.25;font-family:sans-serif;letter-spacing:0px;word-spacing:0px;fill:#000000;fill-opacity:1;stroke:none"
     x="503.14084"
     y="338.07465"
     id="text3890"><tspan
       sodipodi:role="line"
       id="tspan3888"
       x="503.14084"
       y="338.07465"
       style="font-style:normal;font-variant:normal;font-weight:normal;font-stretch:normal;font-size:16px;font-family:sans-serif;-inkscape-font-specification:'sans-serif, Normal';font-variant-ligatures:normal;font-variant-caps:normal;font-variant-numeric:normal;font-feature-settings:normal;text-align:start;writing-mode:lr-tb;text-anchor:start">wikipedia.org</tspan></text>
</svg>