<?xml version="1.0" encoding="UTF-8" standalone="no"?>
<!-- Generator: Adobe Illustrator 20.1.0, SVG Export Plug-In . SVG Version: 6.00 Build 0)  -->

<svg
   xmlns:dc="http://purl.org/dc/elements/1.1/"
   xmlns:cc="http://creativecommons.org/ns#"
   xmlns:rdf="http://www.w3.org/1999/02/22-rdf-syntax-ns#"
   xmlns:svg="http://www.w3.org/2000/svg"
   xmlns="http://www.w3.org/2000/svg"
   xmlns:sodipodi="http://sodipodi.sourceforge.net/DTD/sodipodi-0.dtd"
   xmlns:inkscape="http://www.inkscape.org/namespaces/inkscape"
   version="1.1"
   id="Layer_1"
   x="0px"
   y="0px"
   viewBox="0 0 229.70744 102.50524"
   xml:space="preserve"
   sodipodi:docname="Monitoring.svg"
   inkscape:version="0.92.2 (5c3e80d, 2017-08-06)"
   width="229.70744"
   height="102.50524"><metadata
     id="metadata197"><rdf:RDF><cc:Work
         rdf:about=""><dc:format>image/svg+xml</dc:format><dc:type
           rdf:resource="http://purl.org/dc/dcmitype/StillImage" /><dc:title></dc:title></cc:Work></rdf:RDF></metadata><defs
     id="defs195" /><sodipodi:namedview
     pagecolor="#ffffff"
     bordercolor="#666666"
     borderopacity="1"
     objecttolerance="10"
     gridtolerance="10"
     guidetolerance="10"
     inkscape:pageopacity="0"
     inkscape:pageshadow="2"
     inkscape:window-width="2016"
     inkscape:window-height="1329"
     id="namedview193"
     showgrid="false"
     inkscape:zoom="1.625"
     inkscape:cx="115.54842"
     inkscape:cy="-70.558463"
     inkscape:window-x="2793"
     inkscape:window-y="47"
     inkscape:window-maximized="0"
     inkscape:current-layer="Layer_1"
     fit-margin-top="0"
     fit-margin-left="0"
     fit-margin-right="0"
     fit-margin-bottom="0" /><style
     type="text/css"
     id="style2">
	.st0{fill:#353535;}
	.st1{fill:#19838E;}
	.st2{fill:#3737AA;}
	.st3{fill:#8B9B29;}
	.st4{fill:none;}
	.st5{fill:#3FA9F5;}
	.st6{fill:#F15A24;}
	.st7{fill:#9263AB;}
	.st8{fill:#AA2E2E;}
	.st9{fill:#FFFFFF;}
</style><g
     id="g3895"
     transform="rotate(30.284755,701.25446,-544.23046)"><g
       id="g78"><path
         class="st8"
         d="m 523.7,189.7 c -9.1,43 -47.3,75.4 -93,75.4 -4.2,0 -8.3,-0.3 -12.4,-0.8 l -21.9,32.7 5.6,36.9 c 9.3,1.6 18.9,2.5 28.7,2.5 79.6,0 146.1,-55.9 162.5,-130.6 l -37.6,5.5 z"
         id="path76"
         inkscape:connector-curvature="0"
         style="fill:#aa2e2e" /></g><g
       id="g152"><path
         class="st9"
         d="m 464.4,299.4 -4.5,-7.1 h -0.1 c 0.5,1.5 0.8,2.6 1,3.1 l 1.2,4.6 -1.9,0.5 -2.7,-9.8 2.8,-0.8 4.4,6.9 v 0 l 0.4,-8.2 2.8,-0.8 2.7,9.8 -1.9,0.5 -1.3,-4.7 c -0.1,-0.2 -0.1,-0.5 -0.2,-0.8 -0.1,-0.3 -0.2,-1.1 -0.5,-2.3 h -0.1 l -0.5,8.4 z"
         id="path138"
         inkscape:connector-curvature="0"
         style="fill:#ffffff" /><path
         class="st9"
         d="m 481.6,288.2 c 0.6,1.6 0.7,2.9 0.2,4.1 -0.5,1.1 -1.4,2 -2.9,2.6 -1.5,0.6 -2.7,0.6 -3.8,0 -1.1,-0.5 -2,-1.6 -2.6,-3.2 -0.6,-1.6 -0.7,-2.9 -0.2,-4.1 0.5,-1.1 1.4,-2 2.9,-2.6 1.5,-0.6 2.7,-0.6 3.8,0 1.1,0.6 1.9,1.6 2.6,3.2 z m -7,2.7 c 0.4,1.1 0.9,1.8 1.5,2.2 0.6,0.4 1.3,0.4 2.1,0.1 1.6,-0.6 2,-2 1.2,-4.1 -0.8,-2.1 -2,-2.9 -3.6,-2.3 -0.8,0.3 -1.3,0.8 -1.5,1.5 -0.2,0.6 -0.1,1.5 0.3,2.6 z"
         id="path140"
         inkscape:connector-curvature="0"
         style="fill:#ffffff" /><path
         class="st9"
         d="m 495,287.3 -2.5,1.2 -7.4,-4.9 H 485 c 0.7,1.2 1.2,2 1.4,2.5 l 2.2,4.3 -1.7,0.9 -4.6,-9.1 2.4,-1.2 7.4,4.8 v 0 c -0.7,-1.2 -1.1,-2 -1.4,-2.5 l -2.2,-4.3 1.7,-0.9 z"
         id="path142"
         inkscape:connector-curvature="0"
         style="fill:#ffffff" /><path
         class="st9"
         d="m 498.5,285.3 -5.2,-8.8 1.9,-1.1 5.2,8.8 z"
         id="path144"
         inkscape:connector-curvature="0"
         style="fill:#ffffff" /><path
         class="st9"
         d="m 507,279.8 -1.8,1.2 -4.7,-6.9 -2.3,1.6 -1,-1.5 6.4,-4.3 1,1.5 -2.3,1.6 z"
         id="path146"
         inkscape:connector-curvature="0"
         style="fill:#ffffff" /><path
         class="st9"
         d="m 515.8,266.6 c 1.1,1.3 1.6,2.6 1.5,3.8 -0.1,1.2 -0.7,2.3 -1.9,3.3 -1.2,1 -2.4,1.4 -3.6,1.2 -1.2,-0.2 -2.4,-0.9 -3.4,-2.2 -1.1,-1.3 -1.6,-2.6 -1.5,-3.8 0.1,-1.2 0.7,-2.3 1.9,-3.3 1.2,-1 2.4,-1.4 3.6,-1.2 1.2,0.1 2.3,0.8 3.4,2.2 z m -5.8,4.7 c 0.7,0.9 1.4,1.4 2.1,1.6 0.7,0.2 1.4,0 2,-0.6 1.3,-1.1 1.3,-2.5 -0.2,-4.3 -1.5,-1.8 -2.8,-2.1 -4.2,-1 -0.7,0.5 -1,1.2 -1,1.9 0.2,0.7 0.6,1.5 1.3,2.4 z"
         id="path148"
         inkscape:connector-curvature="0"
         style="fill:#ffffff" /><path
         class="st9"
         d="m 520.6,263.7 2.7,2.8 -1.5,1.5 -7.1,-7.3 2.1,-2.1 c 1,-1 1.9,-1.5 2.7,-1.6 0.8,-0.1 1.6,0.2 2.3,0.9 0.4,0.4 0.7,0.9 0.8,1.5 0.1,0.6 0,1.2 -0.2,1.8 2.7,0.6 4.5,0.9 5.3,1.1 l -1.7,1.7 -4.5,-1.1 z m -1.2,-1.3 0.5,-0.5 c 0.5,-0.5 0.8,-0.9 0.8,-1.3 0.1,-0.4 -0.1,-0.8 -0.4,-1.1 -0.3,-0.3 -0.7,-0.5 -1.1,-0.4 -0.4,0.1 -0.8,0.4 -1.3,0.9 l -0.5,0.5 z"
         id="path150"
         inkscape:connector-curvature="0"
         style="fill:#ffffff" /></g></g></svg>